<svg width="13" height="12" viewBox="0 0 13 12" fill="none" xmlns="http://www.w3.org/2000/svg">
<g clip-path="url(#clip0_2171_2901)">
<path d="M11.4976 11.8174C11.1112 6.00728 6.09002 1.45666 0.0662395 1.45666H0V0H0.0662395C6.88188 0 12.5624 5.14979 12.999 11.7232L11.4966 11.8165L11.4976 11.8174Z" fill="white"/>
<path d="M7.22411 12C6.98524 8.403 3.876 5.58484 0.146519 5.58484H0.103363V4.12817H0.146519C4.66787 4.12817 8.43649 7.54454 8.72654 11.9058L7.22411 11.999V12Z" fill="white"/>
<path d="M2.48698 12C2.40669 10.7978 1.36794 9.85583 0.120425 9.85583H0.103363V8.39917H0.120425C2.15879 8.39917 3.85894 9.94032 3.98941 11.9068L2.48698 12Z" fill="white"/>
</g>
<defs>
<clipPath id="clip0_2171_2901">
<rect width="13" height="12" fill="white"/>
</clipPath>
</defs>
</svg>
