<svg width="14" height="10" viewBox="0 0 14 10" fill="none" xmlns="http://www.w3.org/2000/svg">
<g clip-path="url(#clip0_2171_2881)">
<path d="M9.24044 3.62237C9.33116 3.6204 9.42188 3.61843 9.51294 3.61646H9.2363L9.24044 3.62237Z" fill="white"/>
<path d="M4.6799 3.6072H10.0269C9.85617 3.60997 9.68404 3.61352 9.51295 3.61667H11.8503C11.852 3.61352 11.8534 3.61036 11.8551 3.6072H13.633C13.633 3.6072 13.5657 2.44034 13.1704 1.84192C13.0938 1.72594 12.9993 1.61786 12.8896 1.51687C11.9666 0.665193 9.98621 0.326337 8.87755 0.122392C8.05037 -0.0294819 6.94999 -0.0290875 5.95931 0.0651926C5.47224 0.111741 5.01174 0.180774 4.62333 0.265193C3.6937 0.467559 1.39808 0.96539 0.733369 1.98432C0.454307 2.41194 0.428436 3.6072 0.428436 3.6072H4.6799ZM8.82064 1.39498C8.93413 1.37131 9.09073 1.45651 9.09246 1.56736C9.09349 1.63008 8.9838 1.68216 8.9224 1.68137C8.80132 1.67979 8.62436 1.67269 8.62505 1.55277C8.62574 1.46914 8.74027 1.41194 8.82029 1.39498H8.82064ZM8.05072 0.616277C8.08418 0.559867 8.16835 0.521603 8.23147 0.508585C8.33771 0.486494 8.4819 0.559473 8.50087 0.660064C8.50225 0.66677 8.50329 0.673871 8.50329 0.680972C8.50432 0.743694 8.39498 0.79537 8.33358 0.794581C8.2125 0.793003 8.03554 0.785903 8.03623 0.665982C8.03623 0.64823 8.04175 0.631662 8.05072 0.616277ZM7.71129 1.24271C7.73371 1.23797 7.75855 1.23995 7.78235 1.24626C7.84134 1.26243 7.89515 1.3074 7.89584 1.36105C7.89584 1.40405 7.82133 1.43876 7.77959 1.43797C7.69749 1.4364 7.57676 1.43087 7.5778 1.34922C7.57849 1.29241 7.65679 1.25375 7.71095 1.24271H7.71129ZM6.88997 0.478605C7.02381 0.445074 7.21215 0.53896 7.21733 0.670715C7.21905 0.710557 7.18249 0.748427 7.1373 0.774857C7.09867 0.797737 7.05348 0.812333 7.01967 0.813122C6.93206 0.815094 6.81961 0.816277 6.74441 0.78393C6.6968 0.763417 6.66438 0.729887 6.66334 0.674266C6.66127 0.575252 6.79546 0.502273 6.88997 0.478605ZM6.17042 1.24271C6.28045 1.21509 6.43533 1.29202 6.43982 1.4005C6.44223 1.46164 6.33668 1.51608 6.277 1.51766C6.15903 1.52081 5.98621 1.52042 5.98414 1.40365C5.98242 1.322 6.0928 1.26204 6.17042 1.24271ZM4.59263 1.60602C4.69163 1.6076 4.79787 1.66914 4.80581 1.75789C4.81133 1.82022 4.70577 1.88373 4.64506 1.88926C4.52433 1.9007 4.34737 1.91253 4.33978 1.793C4.3384 1.76973 4.34599 1.74764 4.3591 1.72752C4.43223 1.70582 4.51502 1.66598 4.59298 1.60602H4.59263ZM3.35531 1.87505C3.23458 1.88886 3.05796 1.90464 3.04865 1.78511C3.0421 1.70188 3.15144 1.63048 3.22906 1.60365C3.26114 1.59261 3.29805 1.59024 3.33358 1.59498L3.35531 1.87505L3.33392 1.59498C3.42223 1.60681 3.50639 1.66164 3.51398 1.74014C3.52054 1.80247 3.41567 1.86795 3.35496 1.87505H3.35531ZM3.94965 1.16776C3.94172 1.14093 3.93551 1.11332 3.93171 1.08531C3.93068 1.07624 3.92964 1.06756 3.92895 1.05849C3.92792 1.04823 3.92723 1.03758 3.92654 1.02732C4.06797 0.992214 4.20215 0.960656 4.32702 0.932254C4.33082 0.9504 4.33427 0.969335 4.33599 0.988664C4.33909 1.0147 4.34047 1.04034 4.34013 1.0648C4.27424 1.09202 4.21388 1.12673 4.15972 1.16815C4.08728 1.17841 4.00864 1.18432 3.95 1.16815L3.94965 1.16776Z" fill="white"/>
<path d="M11.8427 7.18823H0.397736V9.14563C0.397736 9.61742 0.709912 10.0001 1.09487 10.0001H12.9052C13.2901 10.0001 13.6023 9.61742 13.6023 9.14563V7.18823H11.8427Z" fill="white"/>
<path d="M4.80171 4.93731C5.53437 4.92153 6.26704 4.90299 7.00005 4.89391C8.05076 4.87143 9.10078 4.86748 10.1515 4.87024C10.3102 4.87064 10.4692 4.87103 10.6279 4.87182L10.6179 4.85802L10.1367 4.19884L10.1353 4.19727C10.1042 4.19766 10.0739 4.19805 10.0428 4.19884H9.66131L9.66614 4.20555C8.77722 4.22251 7.88898 4.24697 7.00005 4.25802C6.49781 4.26906 5.99522 4.27537 5.49298 4.27892H5.45952C5.13079 4.28129 4.80205 4.28247 4.47332 4.28247C3.04179 4.28326 1.60992 4.26788 0.178389 4.26788C0.0800794 4.26748 0.000396729 4.3093 0.000396729 4.36058V4.80239C0.000396729 4.84894 0.0669714 4.88878 0.156313 4.89431C0.242204 4.89983 0.328441 4.90496 0.414333 4.9093C1.87691 4.99016 3.33948 4.96847 4.80205 4.93731H4.80171Z" fill="white"/>
<path d="M13.9986 4.33838C13.989 4.29657 13.9262 4.26264 13.8441 4.25752C13.7606 4.25239 13.6775 4.24726 13.594 4.24292L13.1452 4.85791L13.1273 4.88276C13.2604 4.88316 13.3939 4.88355 13.5274 4.88355H13.5285C13.5485 4.88947 13.5678 4.89657 13.5864 4.90446L13.6016 4.88355C13.6751 4.88395 13.7485 4.88395 13.822 4.88395C13.9203 4.88395 14.0003 4.84253 14.0003 4.79124V4.34943C14.0003 4.34588 14.0003 4.34193 13.999 4.33838H13.9986Z" fill="white"/>
<path d="M12.6964 5.47298L11.8813 6.59014L11.0607 5.46549L11.049 5.44971H0.654007C0.602265 5.44971 0.554663 5.47101 0.516374 5.5073C0.461872 5.55779 0.427032 5.63787 0.427032 5.72821V6.39685C0.427032 6.47535 0.453248 6.54635 0.496367 6.59645C0.53707 6.64537 0.592952 6.67535 0.654352 6.67535H13.3577C13.4191 6.67535 13.475 6.64537 13.5157 6.59645C13.5585 6.54635 13.585 6.47535 13.585 6.39685V5.72821C13.585 5.61578 13.5309 5.51914 13.4529 5.47535C13.4239 5.45878 13.3919 5.44971 13.358 5.44971H12.714L12.6971 5.47298H12.6964Z" fill="white"/>
<path d="M13.3132 4.20662C12.6654 4.19439 11.5474 4.20267 10.8834 4.20662H10.4491L10.8831 4.74429C11.1338 5.05829 11.6247 5.66184 11.881 5.98177C12.307 5.45277 12.8893 4.73285 13.3132 4.20662Z" fill="white"/>
</g>
<defs>
<clipPath id="clip0_2171_2881">
<rect width="14" height="10" fill="white"/>
</clipPath>
</defs>
</svg>
